<?xml version="1.0" encoding="UTF-8" standalone="no"?>
<!-- Created with Inkscape (http://www.inkscape.org/) -->

<svg
   xmlns:dc="http://purl.org/dc/elements/1.1/"
   xmlns:cc="http://creativecommons.org/ns#"
   xmlns:rdf="http://www.w3.org/1999/02/22-rdf-syntax-ns#"
   xmlns:svg="http://www.w3.org/2000/svg"
   xmlns="http://www.w3.org/2000/svg"
   xmlns:sodipodi="http://sodipodi.sourceforge.net/DTD/sodipodi-0.dtd"
   xmlns:inkscape="http://www.inkscape.org/namespaces/inkscape"
   width="744.09448819"
   height="1052.3622047"
   id="svg3768"
   version="1.1"
   inkscape:version="0.48.4 r9939"
   sodipodi:docname="New document 4">
  <defs
     id="defs3770" />
  <sodipodi:namedview
     id="base"
     pagecolor="#ffffff"
     bordercolor="#666666"
     borderopacity="1.0"
     inkscape:pageopacity="0.0"
     inkscape:pageshadow="2"
     inkscape:zoom="1.4"
     inkscape:cx="261.02798"
     inkscape:cy="707.02144"
     inkscape:document-units="px"
     inkscape:current-layer="layer1"
     showgrid="false"
     inkscape:window-width="1920"
     inkscape:window-height="1017"
     inkscape:window-x="1592"
     inkscape:window-y="-8"
     inkscape:window-maximized="1" />
  <metadata
     id="metadata3773">
    <rdf:RDF>
      <cc:Work
         rdf:about="">
        <dc:format>image/svg+xml</dc:format>
        <dc:type
           rdf:resource="http://purl.org/dc/dcmitype/StillImage" />
        <dc:title></dc:title>
      </cc:Work>
    </rdf:RDF>
  </metadata>
  <g
     inkscape:label="Layer 1"
     inkscape:groupmode="layer"
     id="layer1">
    <g
       id="g4323">
      <g
         id="g4319">
        <g
           id="g4316">
          <path
             id="path3792"
             d="m 693.73457,362.36545 c 0,120.34146 -97.56123,217.90269 -217.90924,217.90269 -120.34801,0 -217.91579,-97.55904 -217.91579,-217.90269 l 0,0 c 0,-120.34801 97.56559,-217.90924 217.91579,-217.90924 120.3502,0 217.90924,97.56123 217.90924,217.90924 z"
             inkscape:connector-curvature="0"
             style="fill:#ffffff;stroke:#cccccc;stroke-width:1.63792276" />
        </g>
      </g>
    </g>
    <path
       style="fill:#cc7d46;fill-opacity:1"
       inkscape:connector-curvature="0"
       d="m 459.33909,567.52292 c -1.10287,-0.16598 -2.04849,-0.70321 -2.11619,-1.17275 -0.059,-0.48046 -0.13759,-1.20551 -0.18564,-1.62045 -0.11793,-1.01333 -5.21951,-5.48158 -8.56742,-7.50824 -1.69034,-1.01333 -3.04436,-2.57045 -3.59907,-4.12757 -0.50011,-1.37585 -1.17275,-2.50493 -1.49378,-2.50493 -0.31448,0 -0.57,-0.46953 -0.57,-1.04608 0,-0.5831 -0.69229,-1.53091 -1.53528,-2.13367 -0.83643,-0.5831 -1.31689,-1.41735 -1.05045,-1.84539 0.29919,-0.48046 0.048,-0.60713 -0.6508,-0.34724 -0.82552,0.3254 -1.12471,-0.0437 -1.12471,-1.32563 0,-1.10942 -1.25356,-3.06619 -3.35447,-5.27411 -3.46584,-3.59688 -4.95307,-8.01927 -3.38504,-10.01317 0.39966,-0.50011 0.93253,-1.80171 1.19896,-2.89366 0.26207,-1.08758 1.45666,-2.70803 2.6447,-3.5947 2.58137,-1.90435 2.65562,-2.60757 0.63988,-6.021 -0.84298,-1.42827 -1.33872,-3.08585 -1.0985,-3.71044 0.23368,-0.60712 -0.9216,-3.8917 -2.57481,-7.27238 -2.22976,-4.59492 -4.03584,-7.11295 -7.08019,-9.89523 -3.67332,-3.34792 -7.35755,-8.41456 -7.35755,-10.12455 0,-0.34724 0.49574,-0.6508 1.09194,-0.6508 0.74035,0 1.09851,-0.75781 1.11379,-2.35643 0.0153,-1.3016 0.50011,-2.9963 1.09195,-3.77596 1.89781,-2.51584 0.77747,-7.67421 -1.23608,-5.67376 -0.49575,0.50448 -1.32126,0.90632 -1.84977,0.90632 -1.33872,0 -1.17275,-2.13367 0.21403,-2.66217 2.10527,-0.81023 -0.51759,-1.67942 -5.14963,-1.69907 -2.40011,-0.0109 -4.73032,-0.26644 -5.17802,-0.55471 -0.4477,-0.30575 -1.67942,-2.2385 -2.71895,-4.31539 -1.66413,-3.29986 -2.26689,-3.85021 -4.64952,-4.2979 -3.65803,-0.68575 -8.14594,-0.67701 -14.72165,0.0284 -5.1125,0.55471 -5.68905,0.46298 -9.09156,-1.36057 -2.81505,-1.50252 -5.03825,-2.03758 -9.81662,-2.34987 -7.07583,-0.47609 -7.66766,-0.84954 -14.0228,-8.95835 -2.04195,-2.59665 -5.20423,-6.09526 -7.02123,-7.78341 -2.1708,-2.01574 -3.03344,-3.25837 -2.50056,-3.63619 1.3016,-0.90631 0.31448,-4.9225 -1.7908,-7.28985 -1.06137,-1.19459 -2.34551,-2.78228 -2.8478,-3.52917 -0.50667,-0.76218 -1.58333,-2.3608 -2.39355,-3.55102 -1.09195,-1.62045 -1.33218,-2.74079 -0.94345,-4.36124 0.29265,-1.20551 0.55908,-3.8109 0.57655,-5.81135 0.0262,-2.3193 0.45862,-4.02056 1.19459,-4.72377 1.53092,-1.45011 3.03344,-5.0863 2.10528,-5.0863 -0.38873,0 -0.70977,-0.98057 -0.70977,-2.18608 0,-1.19459 0.28173,-2.17516 0.62897,-2.17516 0.34724,0 0.59183,0.57218 0.54815,1.26884 -0.19655,2.85873 1.25356,1.76023 1.52,-1.15528 0.19655,-2.10746 0.0371,-3.00286 -0.47391,-2.67745 -0.96965,0.59183 -0.98057,0.75126 0.31885,-5.42699 0.88448,-4.21929 1.6685,-5.85066 4.18653,-8.77271 1.70126,-1.97643 3.6624,-3.76941 4.36124,-3.99217 0.70322,-0.22494 1.26885,-0.88448 1.26885,-1.48286 0,-1.93057 2.20792,-4.47481 4.24331,-4.87883 1.13126,-0.22712 2.43723,-1.20988 2.99631,-2.24941 0.7731,-1.43919 1.3693,-1.75367 2.68619,-1.42827 1.05045,0.27299 1.71217,0.11356 1.71217,-0.40621 0,-0.45861 0.40621,-0.7731 0.90632,-0.68574 0.50011,0.0786 1.40206,-0.0633 2.00045,-0.31885 0.59621,-0.25115 1.94585,-0.76436 2.98539,-1.14654 1.46103,-0.53288 2.00045,-1.3431 2.35206,-3.48769 0.61367,-3.8655 4.97928,-8.30754 9.28156,-9.44754 4.07952,-1.07666 7.12387,-4.84606 6.62157,-8.21582 -0.21839,-1.50907 -0.72942,-2.18171 -1.65321,-2.18171 -0.72942,0 -1.52436,-0.32977 -1.77114,-0.72505 -0.25115,-0.39966 -1.08321,-0.72943 -1.86504,-0.72943 -1.67505,0 -1.73839,-0.58746 -0.29265,-2.51148 0.68356,-0.90195 0.91724,-2.22976 0.6508,-3.64711 -0.32976,-1.7755 0.0371,-2.81504 1.80172,-5.03388 2.30838,-2.90021 3.68423,-6.64778 3.69515,-10.035 0.004,-1.69471 0.42586,-2.08563 2.98539,-2.77792 2.47436,-0.66172 3.19286,-0.60712 4.23239,0.33632 0.6923,0.62459 1.74275,1.13563 2.33022,1.13563 0.59184,0 1.39114,0.32976 1.78643,0.72068 0.38873,0.38873 2.34114,1.20988 4.32411,1.81264 3.46585,1.05482 3.66895,1.03953 4.86354,-0.39529 0.68793,-0.82551 1.4654,-2.62941 1.71655,-3.99872 0.54815,-2.91113 -0.18127,-7.57593 -1.18368,-7.57593 -0.37781,0 -0.69229,-0.45425 -0.69229,-1.0177 0,-0.55908 -0.49138,-1.19896 -1.09195,-1.43482 -0.63551,-0.2446 -1.08758,-1.33218 -1.08758,-2.61849 0,-2.07907 0.15942,-2.20137 2.8478,-2.20137 1.57241,0 3.03343,0.41057 3.26929,0.91068 0.22931,0.50012 0.21403,0.11793 -0.0262,-0.83643 -0.34724,-1.37585 -0.19655,-1.65321 0.68793,-1.31252 0.61804,0.24023 1.25792,0.0437 1.43482,-0.43678 0.20747,-0.5962 0.76873,-0.46299 1.78642,0.4477 1.40862,1.247 1.62701,1.25356 4.28699,0.0852 l 2.80413,-1.23608 -2.54861,-0.63552 c -1.39769,-0.34724 -4.99676,-0.75781 -7.99743,-0.91724 -3.00286,-0.1485 -6.02974,-0.31448 -6.72422,-0.3516 -1.97206,-0.11793 -1.49815,-1.29505 0.72069,-1.7908 1.10286,-0.24459 2.65561,-0.95436 3.45929,-1.5724 1.1793,-0.91724 1.25792,-1.24264 0.43678,-1.75367 -1.33873,-0.82115 -0.47391,-2.94826 1.20551,-2.94826 0.96965,0 1.31689,-0.53943 1.29505,-1.9939 -0.0218,-1.75367 0.22494,-1.97206 1.96769,-1.78643 1.77114,0.18126 1.98953,-0.0262 1.91965,-1.81919 -0.048,-1.23608 -0.21403,-1.53091 -0.41494,-0.76218 -0.18127,0.70322 -0.83207,1.26885 -1.44574,1.26885 -0.68793,0 -0.95873,-0.41057 -0.70977,-1.07666 0.34724,-0.90195 0.18126,-0.93253 -1.01333,-0.18563 -0.78402,0.49574 -1.42827,1.57895 -1.42827,2.41975 0,0.83644 -0.56999,2.02666 -1.27321,2.63815 -1.47195,1.28413 -7.52352,2.32367 -9.63972,1.65321 -2.16424,-0.68793 -1.90873,-3.81745 0.39529,-4.87227 1.0985,-0.49575 1.6947,-1.24264 1.46539,-1.83448 -0.57,-1.48286 1.7908,-4.70193 3.08803,-4.21273 0.59184,0.23367 1.68379,-0.11793 2.41102,-0.78402 0.76873,-0.6923 2.05287,-1.05046 3.06619,-0.85827 1.16839,0.22494 2.02011,-0.11794 2.58137,-1.00241 0.51758,-0.82552 0.55471,-1.33218 0.10046,-1.33218 -1.29068,0 -0.78839,-1.45011 0.54379,-1.53528 1.20988,-0.0852 1.20988,-0.10046 0,-0.41494 -1.71218,-0.4477 -1.60516,-1.24701 0.44333,-3.45929 1.76022,-1.90436 4.09918,-2.48965 4.09918,-1.03517 0,0.57655 0.31448,0.55908 1.05482,-0.0633 0.58091,-0.48046 1.4239,-0.65517 1.86505,-0.37782 0.43678,0.27299 1.4501,-0.0852 2.22975,-0.79494 1.13563,-1.02861 1.60517,-1.10286 2.31494,-0.38436 0.71413,0.71413 0.39965,1.34309 -1.47632,3.03343 -2.04194,1.83884 -2.17079,2.13367 -0.91068,2.13367 1.93056,0 1.93056,2.26688 0,4.00308 -1.68379,1.52436 -1.49379,3.99435 0.81022,10.37133 1.57896,4.39837 1.82792,9.32961 0.47391,9.8057 -0.50011,0.18126 -0.6923,0.55907 -0.43241,0.84298 0.81022,0.88011 4.64296,-1.55057 6.70674,-4.2717 1.78643,-2.34114 2.30838,-2.58574 5.52963,-2.58574 3.92446,0 4.04676,-0.15505 4.73906,-5.73709 0.54379,-4.32849 1.15091,-5.19768 4.42021,-6.31802 2.17079,-0.75126 2.92642,-0.76873 3.35883,-0.0917 0.3254,0.51103 0.56563,-0.10701 0.56563,-1.48287 0.0153,-2.60757 -1.02425,-3.01814 -3.29987,-1.29068 -0.77747,0.58747 -2.39355,1.07666 -3.59906,1.08758 -3.24091,0.0328 -4.22803,-2.03102 -3.60343,-7.51261 0.67701,-5.8856 1.81918,-7.91662 5.37894,-9.51742 1.63137,-0.73597 2.95918,-1.59424 2.95918,-1.90436 0,-0.31885 1.15091,-0.99149 2.55952,-1.49378 1.7231,-0.6246 3.40688,-2.15333 5.14526,-4.68228 1.42827,-2.06378 3.38068,-4.17561 4.35033,-4.68664 0.96528,-0.5285 1.627,-1.07666 1.46102,-1.24701 -0.16597,-0.16597 -1.01332,0.0852 -1.88251,0.54816 -0.8692,0.46299 -1.75367,0.67264 -1.9677,0.45862 -0.57654,-0.58092 4.14722,-4.73906 7.19158,-6.31801 1.47194,-0.76218 2.87401,-1.71655 3.12952,-2.12275 0.25115,-0.41057 1.41735,-0.74689 2.59665,-0.74689 1.17276,0 2.13804,-0.26207 2.13804,-0.57655 0,-0.85827 4.3394,-2.16425 7.37939,-2.22321 1.85631,-0.0371 3.2278,0.48482 4.58181,1.74275 1.06575,0.98712 2.41103,1.78643 2.98539,1.78643 0.58092,0 1.05482,0.32977 1.05482,0.72942 0,0.39965 0.64425,0.72505 1.43919,0.72505 2.57482,0 10.76006,3.7847 11.60305,5.36802 0.4739,0.86919 1.6139,1.57896 2.66653,1.64229 1.69471,0.10046 1.74275,0.0109 0.69667,-1.14654 -0.62241,-0.6923 -1.13563,-1.80172 -1.13563,-2.46781 0,-0.67264 -0.33632,-1.2208 -0.7316,-1.2208 -0.39966,0 -0.72943,-0.52195 -0.72943,-1.16838 0,-0.90195 0.54379,-1.0985 2.36735,-0.83207 1.29505,0.1769 2.93297,0.57 3.62527,0.87356 0.93252,0.40621 1.94585,-0.22494 3.92446,-2.41539 1.72091,-1.92401 3.52263,-3.12952 5.10158,-3.42872 4.66699,-0.86919 1.93712,-3.93538 -3.01814,-3.38067 -1.94585,0.21839 -3.82837,-0.0699 -5.28285,-0.82551 -1.91528,-0.98712 -2.33022,-1.6947 -2.69711,-4.62331 -0.24023,-1.89781 -0.6246,-4.2717 -0.84954,-5.26756 -0.88448,-3.99435 -0.48482,-6.02974 1.46758,-7.44927 1.04827,-0.76873 1.91965,-1.88252 1.91965,-2.47873 0,-0.64425 0.5154,-0.98057 1.26884,-0.82551 0.99586,0.19655 1.20988,0.81023 0.99149,2.78229 -0.15942,1.38677 -0.31885,4.92032 -0.34724,7.86421 -0.0568,4.71285 0.12885,5.50779 1.57896,6.68054 2.16424,1.7493 8.49973,2.93734 12.14683,2.27562 l 2.91114,-0.53287 -2.00482,-1.73838 c -1.0985,-0.96529 -1.9939,-2.40011 -1.9939,-3.19941 0,-0.79931 -0.45862,-1.96114 -1.01333,-2.59666 -0.55907,-0.62896 -1.247,-2.25596 -1.53528,-3.60998 -0.50011,-2.36297 -0.44769,-2.43723 1.32781,-1.99389 1.60954,0.39965 1.87597,0.20747 2.07907,-1.52437 l 0.22713,-1.99389 1.63137,1.76459 c 1.32781,1.4239 1.63792,1.53091 1.63792,0.53287 0,-0.67264 -0.35816,-1.22735 -0.80585,-1.22735 -0.47391,0 -0.67265,-0.75782 -0.46299,-1.81919 0.18563,-0.99804 0.0895,-1.81919 -0.22057,-1.81919 -0.31449,0 -0.7731,-1.38677 -1.02862,-3.08803 -0.93471,-6.15203 -1.21643,-6.93605 -2.61194,-7.30513 -1.9939,-0.52195 -1.81264,-2.67746 0.22494,-2.70803 1.58988,-0.0262 1.59206,-0.048 0.17471,-0.84299 -0.79275,-0.45425 -1.6947,-1.18367 -1.98298,-1.61608 -0.36689,-0.54816 -0.53723,-0.55471 -0.54815,-0.0153 -0.0109,0.42586 -2.10747,1.19459 -4.66044,1.70126 -4.90067,0.9762 -6.47307,0.63988 -8.49536,-1.82793 -0.95436,-1.15091 -0.83643,-1.21643 1.45011,-0.76873 1.72309,0.34724 3.01814,0.14414 4.24986,-0.66172 1.05482,-0.69229 2.46344,-0.98712 3.51826,-0.72068 1.03953,0.26206 1.7493,0.11793 1.7493,-0.34069 0,-0.51759 1.09195,-0.6246 3.16665,-0.31448 2.52022,0.37344 3.25619,0.24023 3.61435,-0.67701 0.54816,-1.43919 2.7124,-1.4654 7.20904,-0.10046 3.35229,1.02425 3.45493,1.00678 3.45493,-0.47391 0,-0.83643 0.57,-1.94585 1.27321,-2.48527 1.15747,-0.88011 1.0985,-0.96965 -0.68356,-0.99149 -2.32366,-0.0262 -2.8478,-0.66609 -2.28654,-2.81068 0.33414,-1.27321 0.96965,-1.58987 3.41562,-1.63137 1.65321,-0.0371 2.59665,-0.22494 2.10091,-0.42586 -0.50448,-0.2031 -0.91069,-0.81677 -0.91069,-1.37585 0,-2.62286 -7.46456,-4.70193 -9.99788,-2.78884 -2.57481,1.95241 -7.45364,0.72506 -7.45364,-1.87597 0,-0.76873 -0.32322,-1.58987 -0.72505,-1.83447 -1.30597,-0.80586 -0.76874,-2.54424 0.7993,-2.54424 0.91287,0 1.67505,0.58092 1.90436,1.45011 0.20747,0.79494 0.72505,1.45666 1.14436,1.45666 0.42149,0 1.36057,0.54379 2.07907,1.19459 1.22735,1.10287 1.35402,1.10287 1.77551,0 0.24897,-0.6508 0.91069,-1.19459 1.47195,-1.19459 1.20551,0 1.33654,-1.16184 0.22494,-1.85631 -0.43678,-0.26644 -0.62896,-1.09195 -0.43678,-1.82793 0.24896,-0.95873 -0.36253,-1.76459 -2.12275,-2.80412 -2.48527,-1.46539 -3.24745,-2.92642 -1.56367,-2.99194 1.48287,-0.059 -5.40078,-3.37412 -8.17214,-3.95067 -1.40425,-0.28827 -6.14767,-2.26033 -10.54604,-4.38308 -4.40492,-2.12275 -8.73996,-4.07297 -9.63972,-4.3394 -1.84103,-0.53943 -2.21884,-1.83448 -0.55034,-1.83448 0.5962,0 1.09413,-0.32977 1.09413,-0.72505 0,-0.39965 0.49138,-0.72505 1.08758,-0.72505 0.60057,0 1.08758,0.3254 1.08758,0.72505 0,0.39528 0.89977,0.72942 2.00482,0.72942 1.09195,0.004 2.97883,0.52195 4.17998,1.15747 2.93297,1.54183 9.81443,2.27562 9.81443,1.04608 0,-0.56999 0.48046,-0.72505 1.2754,-0.41494 0.69666,0.26644 5.03388,1.28413 9.63317,2.27126 4.59491,0.9762 9.01731,2.08562 9.81661,2.45688 3.57723,1.67942 7.19813,2.92642 8.48881,2.92642 0.7731,0 2.37171,0.50011 3.54446,1.10942 1.93057,0.99804 2.14241,0.99804 2.14241,0 0,-0.60712 0.33632,-1.10942 0.73597,-1.10942 0.39529,0 0.72505,0.49575 0.72505,1.08758 0,0.59621 0.57219,1.09195 1.27977,1.09195 0.70977,0 3.07711,0.68356 5.27411,1.51999 2.19045,0.83207 5.14963,1.76022 6.57353,2.05723 2.91113,0.59621 10.13765,4.32849 10.13765,5.24136 0,0.82551 -8.28571,-1.01333 -14.90291,-3.31079 -0.79931,-0.28172 -0.22713,0.2446 1.26447,1.16838 1.4916,0.92379 2.72332,2.09436 2.72332,2.59666 0.007,0.49574 0.34724,0.90631 0.75345,0.90631 0.4062,0 2.13366,1.26448 3.81745,2.8216 1.68815,1.55712 6.50801,4.87227 10.70983,7.3641 4.20182,2.49619 8.65915,5.50779 9.91708,6.69146 1.43918,1.36057 2.46343,1.86068 2.76918,1.36494 0.70758,-1.14655 -0.19219,-2.24942 -1.43919,-1.77114 -1.00896,0.38436 -1.17931,0.11793 -1.35402,-2.11183 -0.0393,-0.50011 -0.57218,-1.29069 -1.16183,-1.75367 -2.18171,-1.70126 -0.048,-1.73838 4.83078,-0.10701 5.07974,1.70562 6.58445,2.72987 5.24572,3.55101 -0.44333,0.28173 -0.25115,0.65517 0.46954,0.93908 0.67264,0.25552 1.52873,0.27299 1.90872,0.0371 0.38437,-0.24023 1.14437,-0.059 1.70563,0.39965 0.55908,0.46954 2.0201,0.86919 3.25182,0.90195 1.62482,0.0524 2.18608,0.38436 2.0485,1.23172 -0.11793,0.75781 0.35597,1.16838 1.39114,1.18367 1.88689,0.0262 8.96708,5.78514 8.96708,7.28766 0,1.47632 -1.00896,1.29505 -2.61194,-0.4739 -0.75781,-0.83644 -2.03103,-1.83448 -2.83688,-2.21884 -1.72091,-0.82115 2.51148,3.0924 8.87317,8.19398 2.60539,2.08999 5.44882,5.21951 6.7133,7.40123 2.27562,3.88733 11.03523,13.27591 15.38555,16.48623 l 2.45907,1.81919 -2.72987,-3.73228 c -2.84343,-3.8917 -3.16228,-4.62768 -2.04849,-4.62768 0.95873,0 13.46154,16.64567 12.90683,17.18946 -0.25552,0.25114 -0.95873,0.0437 -1.56804,-0.46299 -1.55057,-1.29068 -1.37586,-0.54816 0.34724,1.43919 1.43263,1.66413 1.86941,2.90677 1.01333,2.90677 -0.2446,0 -2.1293,-1.79735 -4.1909,-3.99435 -2.06378,-2.19045 -4.05113,-3.99435 -4.41147,-3.99435 -0.36253,0 -1.30597,-0.57 -2.09436,-1.26884 -1.41298,-1.25356 -1.41298,-1.24701 -0.22057,1.08758 0.78838,1.53091 0.91723,2.35642 0.38436,2.35642 -0.45207,0 -0.62896,0.51759 -0.39528,1.13126 0.2839,0.73597 0.14413,0.95436 -0.38874,0.61368 -1.67505,-1.02425 0.19218,1.1247 2.22321,2.56389 l 2.05723,1.47195 -0.24896,-2.16424 c -0.40184,-3.46585 0.98057,-2.50493 3.43308,2.38918 2.92206,5.83319 3.61872,6.70675 4.34377,5.52963 0.39092,-0.6246 1.64885,0.29264 4.0686,2.96354 3.94631,4.33941 5.84411,7.16537 9.09593,13.48994 1.23609,2.39355 2.93298,5.071 3.77815,5.93364 2.55952,2.60758 3.39814,3.79562 4.49009,6.41848 1.38677,3.29987 1.36493,5.00549 -0.0633,4.45733 -0.85391,-0.32977 -0.95874,-0.13758 -0.43023,0.83207 0.95873,1.80826 3.72573,15.28727 3.72573,18.1591 0,1.33873 0.70976,3.96596 1.57895,5.84411 1.76678,3.82837 2.71459,11.03741 1.45011,11.03741 -0.43023,0 -1.15091,-1.38677 -1.58988,-3.08803 -1.30597,-5.05354 -1.55711,-5.75893 -1.90872,-5.39641 -0.18563,0.18563 0.1354,2.87838 0.7316,5.99917 0.98057,5.18239 1.33655,5.91399 4.26515,8.62202 4.10573,3.79125 5.35274,8.22238 6.00354,21.3061 0.41494,8.45605 0.34069,9.6288 -0.66828,9.6288 -0.62241,0 -1.13999,-0.49137 -1.13999,-1.08758 0,-0.60275 -0.49138,-1.09194 -1.08103,-1.09194 -0.5962,0 -1.08758,-0.49138 -1.08758,-1.08322 0,-1.63137 -1.28631,-1.31689 -1.84539,0.44333 -0.59621,1.88252 0.26643,9.36892 1.07666,9.36892 0.32977,0 0.80367,1.3977 1.05919,3.09677 0.33632,2.19045 0.92816,3.3217 2.01574,3.81745 3.2278,1.48287 4.89411,14.86579 3.21688,25.76998 -0.58747,3.7847 -1.41735,6.99939 -1.8454,7.1479 -0.42586,0.1354 -0.77746,0.72505 -0.77746,1.27976 0,0.57218 -0.32977,1.03517 -0.73161,1.03517 -0.39965,0 -0.72505,-0.49574 -0.72505,-1.0985 0,-1.37586 -3.00068,-7.90134 -3.7847,-8.23329 -0.95436,-0.39966 -0.65517,-1.71655 0.59184,-2.62723 1.03517,-0.75781 0.95436,-0.99804 -0.73161,-2.09654 -2.41102,-1.58333 -2.44596,-4.07297 -0.10701,-6.26997 1.50908,-1.41735 1.98298,-1.53528 2.92861,-0.75781 0.62241,0.51758 1.33218,0.73597 1.58988,0.48046 0.73597,-0.74035 -2.02666,-9.91708 -2.98539,-9.91708 -0.50011,0 -1.41298,-2.41321 -2.13367,-5.63009 -2.17079,-9.72926 -2.78884,-12.05511 -4.35032,-16.5321 l -1.53528,-4.36124 -0.74689,3.93975 c -0.72069,3.74757 -2.23413,5.65629 -2.84344,3.57286 -0.15287,-0.53288 -0.66172,-2.36298 -1.12034,-4.05768 -0.46298,-1.70126 -1.11378,-3.08804 -1.44355,-3.08804 -0.34069,0 -1.86287,-1.14654 -3.3916,-2.54424 -1.52436,-1.40861 -2.95918,-2.54424 -3.17757,-2.53332 -0.76873,0.0218 -5.12997,10.32765 -5.12997,12.10753 0,0.9762 -0.45862,3.30642 -1.01333,5.18675 -1.20551,4.0686 -2.75826,12.8981 -2.68401,15.28073 0.0284,0.93471 -0.73597,3.33263 -1.6947,5.34181 -1.6139,3.37631 -1.67505,3.83493 -0.70758,6.12802 0.56563,1.3693 1.07011,4.03147 1.10942,5.92273 0.0895,4.10572 1.12034,7.94065 2.34987,8.70064 1.81919,1.12034 4.09044,5.20423 4.09044,7.35318 0,2.76263 -1.29724,5.69779 -2.76918,6.25905 -1.48287,0.57 -2.197,-0.70976 -2.77574,-4.93342 -0.52195,-3.85458 -1.4501,-3.72136 -2.78228,0.4062 -0.58747,1.80172 -1.17931,2.36735 -2.5224,2.36735 -1.39114,0 -2.18608,-0.82551 -3.82182,-3.99872 -1.13781,-2.19044 -2.38919,-4.10572 -2.79321,-4.23239 -0.4062,-0.13758 -1.53528,-1.93493 -2.51585,-3.99871 -0.98057,-2.0616 -2.58136,-4.59492 -3.54009,-5.62354 -0.95873,-1.02425 -1.96769,-2.58137 -2.24942,-3.45056 -0.27735,-0.867 -0.83643,-1.58332 -1.25355,-1.58332 -0.41276,0 -0.58529,-0.4477 -0.37127,-1.00241 0.21403,-0.55471 -0.40183,-2.17079 -1.37803,-3.59469 -0.96747,-1.42391 -1.75367,-2.91769 -1.75367,-3.31734 0,-0.40621 -1.19023,-0.57655 -2.75171,-0.39092 -1.8454,0.22494 -3.67332,-0.14195 -5.59733,-1.13126 -1.57896,-0.80367 -3.2955,-1.4654 -3.80653,-1.4654 -0.51104,0 -0.93908,-0.46517 -0.93908,-1.03079 0,-0.57 -1.00241,-1.25138 -2.22976,-1.51781 -1.22735,-0.27299 -2.40447,-0.95873 -2.62286,-1.53091 -0.22494,-0.57 -1.05482,-1.3977 -1.85631,-1.81701 -1.14436,-0.60712 -1.87597,-0.48701 -3.36975,0.60057 -1.04828,0.75782 -3.06401,1.8454 -4.45734,2.40011 -1.40206,0.57218 -3.18194,1.60953 -3.96596,2.34113 -0.78838,0.71851 -1.76458,1.18368 -2.17952,1.03517 -0.4215,-0.14414 -2.23413,0.16379 -4.02711,0.70322 -4.07297,1.22735 -8.16122,1.26884 -9.30995,0.1223 -1.27977,-1.27322 -1.15529,1.13125 0.19218,3.72791 1.22735,2.37826 2.72987,3.12952 5.05135,2.54861 1.00678,-0.25552 2.68183,0.20747 4.37216,1.20551 2.55298,1.49815 2.70804,1.78424 2.27563,4.22365 -0.24897,1.43919 -0.63989,3.83929 -0.86701,5.34182 -0.25115,1.65321 -0.81023,2.72331 -1.42827,2.72331 -0.68356,0 -1.01988,0.88448 -1.01988,2.73643 0,1.94148 -0.41057,2.98975 -1.45011,3.64055 -0.7993,0.49793 -1.46103,1.58988 -1.46103,2.41539 0,0.91724 -0.58746,1.67505 -1.48723,1.90873 -0.90195,0.23368 -1.65321,1.19459 -1.89781,2.41321 -0.25114,1.26447 -0.99804,2.17516 -1.95677,2.42631 -2.41976,0.61804 -6.88801,4.65388 -7.14352,6.4556 -0.14196,1.00896 -1.60954,2.5224 -3.8655,3.99871 -2.00045,1.31252 -4.41366,3.09895 -5.35273,3.97251 -2.17516,2.00918 -8.91467,6.36606 -9.85375,6.36606 -0.39528,0 -1.59861,0.84735 -2.68401,1.88689 -1.19896,1.15528 -2.89366,1.93056 -4.34377,1.99826 -2.13366,0.10265 -2.54861,-0.22494 -4.0271,-3.15573 -2.05723,-4.09481 -2.58574,-5.62353 -2.83689,-8.29007 -0.13758,-1.4785 -1.31689,-3.13608 -3.86549,-5.45538 -2.01574,-1.83884 -3.85021,-4.00963 -4.08389,-4.84606 -0.22931,-0.83207 -1.48287,-1.9677 -2.77355,-2.54424 -1.83011,-0.80368 -2.58137,-1.76459 -3.35447,-4.30228 -1.67504,-5.48813 -3.14481,-8.00835 -4.96836,-8.4626 -0.94344,-0.2446 -2.20792,-1.37586 -2.80413,-2.53114 -0.60057,-1.15091 -1.36493,-2.09654 -1.70999,-2.09654 -0.34068,0 -0.82769,-0.73597 -1.07229,-1.63137 -0.77747,-2.79321 -5.06446,-7.21996 -6.47307,-6.68054 -0.68356,0.25988 -1.24045,0.96965 -1.24045,1.57896 0,1.39769 3.7694,8.01927 5.80043,10.19443 0.84735,0.89976 1.35838,1.93493 1.13562,2.29746 -0.53287,0.86482 0.30575,2.96354 1.19023,2.96354 2.04194,0 4.6648,4.4355 5.36365,9.08502 0.38436,2.58791 0.94344,3.54664 2.60102,4.52721 1.16183,0.68575 2.82596,2.72988 3.68423,4.53596 0.86483,1.80171 1.9262,3.52918 2.35643,3.81745 0.52195,0.36253 0.49138,0.53942 -0.11793,0.54379 -0.48483,0.007 -0.6923,0.50666 -0.46299,1.10505 0.55471,1.43264 1.71654,1.3977 1.71654,-0.0524 0,-0.76436 0.53288,-1.06574 1.63138,-0.90632 1.07666,0.14851 1.63573,0.72942 1.63573,1.68815 0,0.8954 1.17276,2.23413 3.07712,3.51389 4.60583,3.07056 7.16536,5.70434 7.72007,7.91226 0.79276,3.22125 2.87838,3.82182 6.87054,2.01574 1.88252,-0.8539 3.90918,-1.86286 4.50538,-2.22976 0.5962,-0.37344 1.58333,-0.88011 2.17516,-1.12034 4.72814,-1.88252 9.19639,-4.23021 9.67685,-5.08193 0.31885,-0.55907 1.22298,-1.01769 2.00045,-1.01769 1.05919,0 1.41735,0.50011 1.41735,2.03102 0,1.12034 0.4062,2.45252 0.90632,2.95481 0.72942,0.73598 0.66608,1.05483 -0.33632,1.62046 -0.68356,0.38436 -1.06575,1.15091 -0.85391,1.70562 0.20966,0.55034 -0.33413,2.39574 -1.20988,4.11228 -0.86919,1.70562 -2.37826,5.19767 -3.33262,7.76375 -2.74079,7.27675 -6.25905,12.08569 -15.79613,21.5769 -13.17982,13.13396 -20.11806,21.46553 -17.87301,21.46553 1.13562,0 0.76873,2.78228 -0.40184,3.03998 -0.95,0.2031 -0.95873,0.48046 -0.0633,2.197 1.16838,2.2385 1.12034,3.58378 -0.18564,5.16055 -1.22735,1.47195 -0.35815,4.6386 1.39115,5.0863 1.247,0.32977 1.3824,1.0308 1.27976,6.79192 l -0.11793,6.42939 -2.99631,2.90022 c -1.69907,1.65321 -4.62767,3.48768 -6.75042,4.24331 -2.06815,0.72505 -4.16251,1.81263 -4.66044,2.40665 -0.50011,0.59621 -2.16424,1.72746 -3.71481,2.51585 -3.09239,1.58988 -4.03802,3.07493 -2.84343,4.50975 0.92379,1.12034 0.29483,5.99261 -0.8954,6.93606 -0.4477,0.34723 -2.48964,1.18367 -4.53158,1.84539 -3.12516,1.02425 -3.91792,1.66413 -4.96837,3.97687 -1.24701,2.77355 -1.48723,2.95482 -11.5419,8.26387 -6.15859,3.25838 -10.2119,4.04239 -22.66666,4.40055 -6.40756,0.17908 -12.54431,0.18563 -13.64281,0.004 z m 57.03466,-49.57009 c -0.60276,-1.52436 -1.43919,2.62941 -0.93908,4.66043 0.28172,1.12034 0.48046,0.8954 0.87793,-1.02424 0.28609,-1.36494 0.31011,-3.00068 0.0611,-3.63619 z m -15.40521,-10.15294 c 0,-0.35161 -0.67701,-0.82115 -1.49816,-1.03517 -1.22735,-0.31885 -1.33873,-0.2031 -0.63551,0.63988 0.96091,1.15965 2.13367,1.37586 2.13367,0.39529 z m 10.4827,-16.79417 c 1.48942,0 3.55102,-2.74079 3.04872,-4.05113 -0.34069,-0.89539 -0.95873,-1.05919 -2.44596,-0.69229 -1.09413,0.26643 -2.10746,0.79494 -2.22976,1.16183 -0.13759,0.37345 -0.67264,0.67264 -1.20114,0.67264 -0.5154,0 -1.08103,0.9762 -1.25138,2.15988 -0.26206,1.73183 -0.0393,2.17952 1.18804,2.35642 0.8277,0.11793 1.60954,-0.19218 1.73838,-0.6923 0.12667,-0.50448 0.65299,-0.91505 1.1531,-0.91505 z m 176.35405,-96.92135 c -0.69229,-0.63988 -0.79494,-0.52195 -0.42586,0.50667 0.25552,0.72942 0.51104,1.88033 0.56563,2.54205 0.0633,0.66828 0.24897,0.43678 0.42586,-0.50448 0.18127,-0.94562 -0.0808,-2.08999 -0.56563,-2.54424 z m -0.68792,-2.28217 c 0,-1.39114 -0.45207,-1.39114 -0.98494,0 -0.23368,0.60276 -0.11356,1.09413 0.28172,1.09413 0.38873,0 0.70322,-0.49137 0.70322,-1.09413 z m -113.42288,-5.35273 c 0.0109,-1.02425 0.11356,-1.03954 0.6923,-0.10701 0.91287,1.43919 1.60516,0.66827 4.36124,-4.89412 1.23608,-2.50492 2.57045,-4.5425 2.95481,-4.5425 0.38437,0 0.69885,-0.40621 0.68356,-0.90632 -0.0153,-0.50448 -0.84735,0.0328 -1.86505,1.18367 -2.3193,2.62942 -6.94261,3.36539 -10.30581,1.62701 -1.24263,-0.63988 -2.76263,-0.96965 -3.3763,-0.73598 -1.08758,0.41058 -6.24813,-4.23239 -6.24813,-5.62571 0,-0.34506 -0.34506,-0.62897 -0.7731,-0.62897 -0.42804,0 -0.56563,-0.32321 -0.31885,-0.72505 0.2446,-0.39965 0.10046,-0.72505 -0.3254,-0.72505 -0.41931,0 -0.77747,0.7316 -0.78184,1.63137 -0.0109,1.32125 -0.14413,1.42827 -0.71413,0.54379 -0.60712,-0.93908 -0.70977,-0.92816 -0.72069,0.12448 -0.004,0.66609 -0.41494,1.39114 -0.91723,1.60953 -0.62241,0.26644 -0.39529,0.7731 0.7316,1.59861 0.8954,0.66172 1.63137,1.64666 1.63137,2.18608 0,0.54816 0.45862,0.79931 1.03954,0.57655 0.61367,-0.24023 1.55712,0.42586 2.35206,1.65758 0.72505,1.13126 1.80608,2.49183 2.4132,3.0247 0.60276,0.52632 0.7469,0.78839 0.31667,0.57 -0.43241,-0.20747 -0.79494,0.0393 -0.79494,0.56126 0,0.51103 0.46954,0.93252 1.0308,0.93252 0.69229,0 0.9216,-0.57 0.70758,-1.70999 -0.28172,-1.46758 -0.10701,-1.64229 1.21206,-1.24264 1.96551,0.59621 1.83885,0.4477 2.59447,3.05964 0.44333,1.55712 0.37345,2.34551 -0.20747,2.59666 -0.5962,0.24459 -0.55034,0.55471 0.18127,1.05919 1.31907,0.89976 4.42457,-0.98713 4.44641,-2.6993 z m -111.263,-10.99811 c 0.31885,-2.8478 0.68356,-3.42871 2.90677,-4.53813 3.29987,-1.64229 6.20008,-1.6139 7.89697,0.0852 0.74689,0.74689 2.62286,1.59424 4.18653,1.88252 1.55057,0.29264 3.14918,0.78838 3.55102,1.10287 0.39965,0.31884 1.86941,0.75781 3.27366,0.98712 1.39769,0.22494 4.18434,0.71413 6.17824,1.09194 3.10987,0.57655 3.93102,0.48046 5.58423,-0.69666 2.02665,-1.44574 5.66284,-1.79079 10.08742,-0.98712 3.34791,0.61368 3.79561,0.0218 5.71526,-7.69168 1.89125,-7.60215 1.42826,-11.78868 -1.35402,-12.18397 -0.99149,-0.13758 -1.97206,0.21839 -2.33459,0.85391 -0.93907,1.66849 -4.82641,2.28654 -6.29836,1.00241 -1.93056,-1.69471 -4.49009,-2.26689 -4.49009,-1.00678 0,2.08999 -3.81745,2.59229 -5.67376,0.74034 -1.12034,-1.12034 -1.23609,-1.08758 -1.60298,0.49138 -0.40184,1.72309 -2.17516,2.93734 -2.17516,1.49815 0,-0.43678 -0.6792,-1.47195 -1.50908,-2.29746 -0.82551,-0.82551 -1.31689,-1.9939 -1.09195,-2.59665 0.31012,-0.80586 0.0524,-0.96528 -1.03516,-0.61368 -1.03517,0.32977 -1.44574,0.1223 -1.44574,-0.72505 0,-0.64425 0.3254,-0.98057 0.72505,-0.73597 0.39529,0.24459 0.72506,0.10701 0.72506,-0.31885 0,-0.42586 -0.50012,-0.7731 -1.12471,-0.7731 -0.87356,0 -1.08321,-0.72942 -0.95655,-3.25838 0.0961,-1.79079 -0.0524,-3.48113 -0.32977,-3.75412 -0.28172,-0.28172 -0.50448,-0.11793 -0.50448,0.34724 0,0.46517 -0.49137,0.84299 -1.08321,0.84299 -0.5962,0 -1.08758,-0.48483 -1.08758,-1.08758 0,-0.59184 0.3254,-1.08758 0.72505,-1.08758 0.40184,0 0.72506,-0.54379 0.72506,-1.20551 0,-0.95874 -0.27736,-0.8692 -1.42827,0.45425 -0.79931,0.90631 -2.45689,1.86068 -3.70607,2.11619 l -2.26689,0.46299 1.88689,2.03102 c 1.06574,1.15092 2.24941,1.80827 2.7255,1.51999 0.45862,-0.28827 0.64425,-0.20747 0.41057,0.16598 -0.23367,0.37345 0.8954,2.11183 2.50493,3.86113 2.51148,2.71458 2.76263,3.26274 1.7493,3.82837 -0.6508,0.35816 -0.99148,0.96528 -0.76218,1.33873 0.23368,0.37345 0.11793,0.68356 -0.26643,0.68356 -0.38437,0 -0.88448,-0.48482 -1.10942,-1.07666 -0.23368,-0.61368 -0.8954,-0.89103 -1.53091,-0.64425 -0.79276,0.30356 -1.12034,-0.0262 -1.12034,-1.12471 0,-1.86505 -2.06815,-2.86309 -2.9701,-1.43482 -0.34724,0.55908 -0.64425,1.9131 -0.65517,3.0116 0,1.0985 -0.33632,1.99389 -0.73597,1.99389 -0.39529,0 -0.72506,-0.25551 -0.72506,-0.56999 0,-0.31012 -0.98057,-0.93908 -2.17516,-1.38678 -1.47195,-0.55471 -2.18608,-1.32125 -2.18608,-2.34113 0,-0.83644 -0.46954,-1.52 -1.04609,-1.52 -1.51344,0 -2.21228,-1.50907 -1.04608,-2.24941 0.72942,-0.45425 0.75781,-0.63551 0.0961,-0.63988 -0.50011,-0.004 -0.90632,-0.6508 -0.90632,-1.4239 0,-0.77747 -0.33632,-1.61609 -0.74034,-1.86505 -1.37586,-0.85391 -2.85217,-5.48595 -2.42631,-7.61962 0.34069,-1.67505 0.0153,-2.48527 -1.55057,-3.93538 -1.07666,-1.00241 -3.08148,-2.19045 -4.44204,-2.6447 -1.36057,-0.44333 -2.47436,-1.16183 -2.47436,-1.58333 0,-0.41494 -0.73597,-1.47631 -1.63137,-2.36297 -2.70366,-2.62286 -4.1909,-4.70193 -4.1909,-5.84848 0,-1.65321 -1.4239,-1.27976 -2.13367,0.55908 -0.48482,1.26448 -0.23367,2.05286 1.12034,3.49205 0.95437,1.02425 1.73839,2.37171 1.73839,2.99194 0,1.75367 2.8478,4.964 4.4202,4.964 0.76874,0 1.3977,0.43241 1.3977,0.94999 0,0.52851 1.48286,1.98953 3.27803,3.26275 3.31734,2.34113 3.78469,3.2955 2.56389,5.23043 -0.57655,0.91724 -0.91723,0.82551 -2.21229,-0.56563 -0.84298,-0.90195 -1.86504,-1.43482 -2.27562,-1.17931 -0.50666,0.31012 -0.49137,0.71414 0.0437,1.24701 0.43241,0.43678 0.79494,1.34965 0.79494,2.02666 0,1.71654 -3.67987,5.74801 -5.25227,5.74801 -0.95437,0 -1.29069,0.57 -1.29069,2.18172 0,2.41539 -1.3693,2.88492 -3.16665,1.08758 -0.60275,-0.60276 -1.31252,-1.08758 -1.57895,-1.08758 -1.10942,0 -4.70849,-3.08148 -4.70849,-4.03585 0,-1.29068 3.48769,-2.21883 4.50102,-1.20551 0.91068,0.90632 5.81135,0.26207 6.59537,-0.86919 0.88011,-1.26447 -0.0961,-4.05113 -2.00919,-5.7633 -3.93975,-3.51389 -5.59296,-4.84607 -6.05158,-4.86354 -0.27299,-0.0109 -1.45011,-1.31689 -2.62286,-2.90677 -1.17275,-1.59424 -2.56389,-2.88929 -3.08803,-2.88929 -0.52413,0 -0.95436,-0.32977 -0.95436,-0.72942 0,-0.39966 0.34724,-0.72506 0.78402,-0.72506 1.05482,0 0.0371,-3.04872 -1.36494,-4.07297 -0.83643,-0.60712 -1.66413,-0.53287 -3.34791,0.30357 -4.28699,2.12711 -4.77837,2.31929 -5.75894,2.31929 -0.54379,0 -2.03102,-0.52195 -3.31079,-1.15746 -2.84125,-1.41735 -4.44204,-0.91069 -4.44204,1.41298 0,2.09436 -0.87356,2.86746 -4.72377,4.19527 -3.83274,1.31689 -7.78341,4.85698 -7.25709,6.49491 0.43241,1.36493 -3.6886,6.05157 -4.74561,5.40077 -0.33632,-0.20747 -1.0985,0.11793 -1.70562,0.72506 -1.25356,1.25355 -3.22562,1.39769 -5.80699,0.41057 -2.4001,-0.91069 -4.85262,-0.1769 -4.85262,1.45666 0,1.61608 0.70322,2.09436 3.3916,2.29746 1.13562,0.0852 2.4678,0.54816 2.96354,1.02425 0.59621,0.58746 1.55712,0.66608 2.90677,0.25114 7.94939,-2.45688 9.72053,-2.53768 23.45942,-0.98057 2.19045,0.25115 5.73273,0.4215 7.84893,0.37782 2.69274,-0.0524 3.96596,0.23368 4.23894,0.94999 0.21839,0.57 0.85827,0.85391 1.42827,0.63552 0.68793,-0.26644 1.02862,0.11138 1.02862,1.15746 0,0.85391 -0.48046,1.73183 -1.06138,1.95241 -0.83206,0.32977 -0.88448,0.74034 -0.25114,1.97861 2.1424,4.16469 2.17079,4.30228 1.19459,4.92687 -0.53943,0.34069 -1.50908,0.61804 -2.16425,0.62896 -0.65516,0 -1.39114,0.52195 -1.63792,1.14 -0.24459,0.6508 -0.1223,0.93907 0.2992,0.67264 0.39528,-0.2446 1.82355,0.72505 3.16665,2.14895 1.35401,1.43264 3.15136,2.59229 4.03147,2.59229 2.90022,0 8.06076,2.81941 8.06076,4.39837 0,0.91723 0.74035,1.73401 1.9939,2.21883 1.10287,0.4215 3.47677,1.52436 5.27411,2.44815 4.52941,2.34332 5.35055,2.09873 5.78733,-1.79298 z m 14.31763,-13.60786 c -1.1531,-0.17034 -1.91528,-0.68356 -1.75585,-1.16183 0.3254,-0.98057 0.43241,-0.98712 5.071,-0.19655 6.41411,1.10723 3.34137,2.36734 -3.31515,1.35838 z m 25.66952,-0.24459 c 0,-1.05046 1.90436,-2.89585 2.43723,-2.36298 0.23368,0.23368 1.25138,-0.11793 2.27126,-0.78402 1.89125,-1.24264 2.51585,-0.68356 0.9631,0.86482 -0.48046,0.48046 -0.58092,0.86919 -0.22495,0.86919 0.35161,0 0.0175,0.48483 -0.76218,1.0723 -1.64884,1.247 -4.68446,1.46539 -4.68446,0.34069 z m -16.98635,-1.77551 c 0.54379,-1.39115 0.99804,-1.39115 0.99804,0 0,0.60275 -0.31884,1.09195 -0.70321,1.09195 -0.39092,0 -0.52195,-0.48483 -0.29483,-1.09195 z m -39.00221,-2.54424 c 0,-0.92816 0.51758,-0.92816 1.09195,0 0.24459,0.4062 0.10045,0.72505 -0.3254,0.72505 -0.41931,0 -0.76655,-0.31448 -0.76655,-0.72505 z M 431.0751,343.7106 c -0.0481,-0.33632 -0.0218,-0.9216 0.0633,-1.32125 0.0852,-0.39966 0.14414,-2.07471 0.14414,-3.73228 0,-2.33022 0.26643,-2.97447 1.19896,-2.90022 0.93907,0.0743 1.14654,-0.4739 0.9762,-2.58573 -0.16598,-2.08999 0.11138,-2.84125 1.29505,-3.47677 1.31252,-0.70976 1.49379,-0.60275 1.45011,0.85391 -0.0262,0.91723 -0.31012,2.3193 -0.6246,3.10768 -0.3254,0.79931 -0.31011,2.18172 0.0218,3.07056 0.45862,1.22735 -0.24459,5.43791 -1.08321,6.47307 -0.43023,0.52632 -3.37849,0.95873 -3.44182,0.51103 z m -16.25038,-4.55342 c -0.63988,-1.03517 0.1769,-2.21884 1.52436,-2.21884 0.62896,0 1.00241,0.50666 0.85827,1.20988 -0.27735,1.46103 -1.72746,2.07033 -2.38263,1.00896 z m 3.97688,-1.45011 c 0,-0.42149 0.32976,-0.76873 0.72942,-0.76873 0.92815,0 0.92815,0.51103 0,1.08758 -0.40402,0.24678 -0.72942,0.10264 -0.72942,-0.31885 z m 60.43498,14.28269 c -0.59621,-0.59184 -0.80368,-0.51103 -0.80368,0.30356 0,1.45011 0.97402,2.42631 1.33218,1.33873 0.15506,-0.45862 -0.0852,-1.19896 -0.5285,-1.64229 z m 80.86315,-10.15075 c 1.06574,-0.78402 1.12034,-1.23172 0.34069,-3.27367 -0.49574,-1.29505 -1.15091,-2.35642 -1.46539,-2.35642 -0.31667,0 -0.57219,-0.41494 -0.57219,-0.92161 0,-0.51103 -0.65516,-2.1424 -1.45447,-3.63182 -0.79931,-1.48941 -1.45666,-3.16228 -1.45666,-3.72136 0,-0.54816 -0.49575,-1.40861 -1.08758,-1.90872 -0.60057,-0.49575 -1.09195,-1.67942 -1.09195,-2.62942 0,-1.25355 -0.4062,-1.72309 -1.48942,-1.72309 -0.81022,0 -2.30401,-0.82115 -3.2955,-1.81919 -1.00677,-1.0024 -2.11619,-1.81918 -2.46343,-1.81918 -0.35161,0 -1.24046,-0.75781 -1.96551,-1.67942 -1.77988,-2.24941 -3.56194,-2.83688 -4.64952,-1.51999 -0.66172,0.78839 -0.68793,1.48723 -0.11793,2.68182 0.42586,0.88011 0.96965,2.41976 1.19896,3.42217 0.22494,0.99804 0.65735,2.15332 0.96528,2.55953 1.14,1.54183 8.41456,6.88801 9.36674,6.88801 0.55034,0 0.99804,0.49138 0.99804,1.08758 0,0.5962 -0.50667,1.09195 -1.13126,1.09195 -0.91287,0 -1.07666,0.79494 -0.90632,4.17561 0.19655,3.83929 0.3669,4.20619 2.03758,4.42457 1.00241,0.13322 2.13367,0.54816 2.50493,0.90632 1.00678,0.97184 4.28917,0.83207 5.73491,-0.23367 z m -70.03976,-1.9939 c 0,-0.39966 -0.5154,-0.72942 -1.13126,-0.72942 -0.62241,0 -0.93907,0.32976 -0.68574,0.72942 0.58092,0.93907 1.817,0.93907 1.817,0 z m 9.28812,-4.64515 c 2.90021,-1.85631 9.61788,-3.14045 9.61788,-1.83884 0,0.41494 0.34069,0.54816 0.75781,0.28827 0.41712,-0.25988 1.24264,-0.0743 1.81919,0.41057 0.5962,0.49138 3.16665,0.87356 5.82663,0.87356 3.94631,0 5.06009,-0.27735 6.5102,-1.64229 2.17953,-2.04194 1.53528,-3.57722 -2.35206,-5.61916 -1.51344,-0.79494 -4.54687,-2.39356 -6.75042,-3.57286 -4.28699,-2.28217 -5.80043,-2.30838 -8.84042,-0.15506 -2.35642,1.67505 -4.24331,1.76459 -4.24331,0.21402 0,-0.63988 -0.67701,-1.33872 -1.51344,-1.55711 -1.03517,-0.27299 -1.40206,-0.81678 -1.15528,-1.74931 0.24896,-0.95436 -0.0393,-1.35401 -0.96965,-1.35401 -0.73161,0 -1.49379,-0.41057 -1.70126,-0.90632 -0.48482,-1.18367 -3.34136,2.22976 -3.3632,4.00308 -0.0175,0.70322 -0.67919,1.83885 -1.48286,2.52241 -0.79931,0.69229 -1.45011,2.1424 -1.45011,3.26274 0,1.10942 -0.2992,2.0201 -0.64644,2.0201 -1.22735,0 -1.48723,3.23654 -0.4062,4.89412 1.53528,2.32148 6.63249,2.27998 10.34294,-0.0939 z m 12.75395,-16.70245 c 0.21403,-0.55471 0.0437,-1.34309 -0.37344,-1.76022 -0.96965,-0.9762 -4.21711,0.39966 -4.21711,1.78643 0,1.30597 4.09044,1.27976 4.59055,-0.0262 z m -52.98789,-30.63789 c 1.71654,-1.30597 4.16469,-1.38022 5.37457,-0.16597 0.6246,0.62459 1.06138,0.66172 1.41735,0.12885 0.28828,-0.42586 1.05046,-0.96965 1.71218,-1.21643 0.76218,-0.28173 1.32781,-1.57241 1.56803,-3.57723 0.20747,-1.72746 0.95873,-4.84606 1.67505,-6.93605 1.08758,-3.17321 1.66413,-3.87642 3.52481,-4.35033 1.95241,-0.49574 1.70126,-0.60712 -2.1424,-0.93252 -2.54424,-0.21402 -4.48354,-0.0743 -4.66044,0.34724 -0.51103,1.22735 -1.88688,2.3455 -3.51825,2.85872 -1.63793,0.51758 -2.77792,2.79976 -2.01574,4.03584 0.50011,0.79494 -0.84735,3.72136 -2.09436,4.54906 -0.43678,0.29919 -1.53091,0.53942 -2.43068,0.54816 -1.69033,0.0109 -2.19044,1.03516 -0.90631,1.82792 1.09195,0.67701 0.86482,1.81263 -0.3669,1.81263 -0.5962,0 -1.08758,-0.3254 -1.08758,-0.72505 0,-0.39965 -0.81678,-0.72505 -1.81918,-0.72505 -1.00241,0 -1.81919,0.3254 -1.81919,0.72505 0,0.39965 0.49138,0.72505 1.08758,0.72505 0.60276,0 1.0985,0.50012 1.0985,1.09195 -0.009,1.41735 3.51171,1.40643 5.40296,-0.0218 z m 4.77182,-8.79673 c 0,-0.84299 0.49574,-1.95241 1.10286,-2.45689 1.71655,-1.43919 1.88252,-0.51758 0.31885,1.86068 -1.25574,1.90654 -1.41516,1.97643 -1.42171,0.59621 z m -13.13614,1.96114 c 0.8539,-0.53943 0.88011,-0.97621 0.15505,-2.35206 -0.5285,-1.01333 -0.72505,-1.13563 -0.49137,-0.32977 0.24459,0.82115 -0.11138,1.7493 -0.88012,2.34551 -1.43482,1.07884 -0.42149,1.37148 1.21644,0.33632 z m 25.95998,-2.59666 c 0.62896,-1.63792 -1.13126,-3.4986 -2.34551,-2.48527 -0.76873,0.62459 -0.78402,1.08758 -0.10046,2.18608 1.04828,1.6816 1.88034,1.78206 2.44597,0.29919 z m 28.61997,-5.40078 c 0,-0.98712 -1.28413,-1.63137 -1.74275,-0.88447 -0.43678,0.70321 0.19218,1.5724 1.13563,1.5724 0.33632,0 0.60712,-0.30793 0.60712,-0.68793 z m -21.5507,-3.31515 c 0.53287,-1.39114 0.15943,-1.39114 -0.99149,0 -0.52631,0.62896 -0.59183,1.08758 -0.16379,1.08758 0.40621,0.004 0.92161,-0.48483 1.15528,-1.08758 z m -13.88958,-3.54665 c 0.60275,-0.88448 0.42149,-8.44076 -0.2031,-8.44076 -0.21839,0 -1.39115,0.91723 -2.61194,2.03102 -2.87838,2.62941 -3.7432,5.75239 -1.94586,7.10204 1.37149,1.03079 3.82837,0.67919 4.7609,-0.6923 z m 22.35218,0.66609 c 0,-0.92816 -2.05286,-2.57482 -3.2278,-2.57482 -0.74034,0 -0.43022,1.87597 0.46517,2.76263 1.20552,1.20988 2.76263,1.0985 2.76263,-0.18781 z m -17.766,-11.73408 c 2.75608,-2.10528 3.2693,-3.91354 1.09195,-3.91354 -1.4239,0 -3.6886,1.77987 -3.6886,2.90021 0,0.33632 -0.19655,1.13563 -0.43678,1.76022 -0.62896,1.63574 0.16598,1.43919 3.03343,-0.74689 z m 22.49414,-1.73838 c -0.24459,-0.39529 -1.00241,-0.70322 -1.67942,-0.67701 -1.00896,0.048 -0.96528,0.16598 0.22495,0.67701 1.94585,0.84298 1.96769,0.84298 1.45447,0 z m 3.63182,-3.9201 c 0,-1.34965 -0.42149,-1.51999 -3.67986,-1.51999 -3.2955,0 -3.65366,0.14851 -3.40252,1.45011 0.22713,1.19459 0.88885,1.47194 3.67987,1.53091 2.99849,0.059 3.40251,-0.11138 3.40251,-1.46103 z M 643.0769,236.00299 c 0.22057,-0.34724 -0.0633,-1.02425 -0.62241,-1.48724 -0.83862,-0.69229 -0.95873,-0.57654 -0.63333,0.63989 0.42367,1.64665 0.6639,1.80171 1.25574,0.84735 z M 526.50921,214.64884 c -0.71413,-0.71413 -0.80367,-0.62459 -0.4062,0.40621 0.27298,0.72068 0.67919,1.12034 0.90195,0.8954 0.22931,-0.21839 0,-0.81023 -0.49575,-1.30161 z m 84.98854,-20.43035 c 0,-0.14414 -0.57,-0.72069 -1.26885,-1.26885 -1.15091,-0.90195 -1.17712,-0.87356 -0.2708,0.27736 0.94126,1.20333 1.53965,1.59424 1.53965,0.99149 z m -52.35893,-29.85387 c 0,-0.54816 -8.99329,-3.25838 -9.39513,-2.82597 -0.44114,0.48046 -0.2031,0.59184 5.03389,2.4416 2.90676,1.0308 4.36124,1.15746 4.36124,0.38437 z m -14.7697,380.57681 c -0.15942,-0.28828 -0.33413,-1.85632 -0.38436,-3.48769 -0.0786,-2.41976 0.31666,-3.34791 2.11838,-5.07537 1.92401,-1.83448 2.14677,-2.45252 1.75367,-4.77837 -0.52196,-3.05309 1.18367,-7.16973 2.95481,-7.16973 2.02229,0 7.64582,-3.08803 9.63535,-5.27848 8.01272,-8.88191 8.07169,-8.93651 9.13306,-7.79433 1.41735,1.49815 2.02666,6.98847 0.88011,7.94502 -0.49793,0.41057 -1.12034,0.53287 -1.38241,0.27735 -0.26643,-0.26644 -0.48045,0.39529 -0.48045,1.46103 0,1.07011 -0.32977,1.94148 -0.72943,1.94148 -0.40183,0 -0.72505,0.31885 -0.72505,0.71414 0,0.84298 -4.86354,8.70064 -9.09156,14.69762 -2.21229,3.14481 -3.68424,4.43113 -6.13239,5.36365 -3.69297,1.41735 -7.12168,1.95241 -7.54973,1.18368 z m 38.76854,-18.28796 c 0,-0.42586 0.32322,-0.7731 0.72506,-0.7731 0.93252,0 0.93252,0.5154 0,1.08758 -0.39966,0.24678 -0.72506,0.11138 -0.72506,-0.31448 z M 410.79761,481.59968 c 0,-0.42586 0.33632,-0.7731 0.72943,-0.7731 0.93907,0 0.93907,0.5154 0,1.08758 -0.39747,0.25115 -0.72943,0.11138 -0.72943,-0.31448 z m -121.94225,-6.40756 c -8.08261,-12.61855 -18.12198,-35.3966 -23.00081,-52.17766 -7.76375,-26.74401 -10.67488,-57.29454 -7.83145,-82.30671 1.18367,-10.37133 2.47435,-11.01558 2.27562,-1.12471 -0.35816,18.29232 -0.22494,24.93574 0.53287,25.84642 0.44333,0.5285 1.18367,3.24746 1.64666,6.03629 0.45862,2.79321 1.13563,5.63664 1.49815,6.32894 0.35816,0.69229 0.66609,2.82596 0.67264,4.72376 0.0109,1.90873 0.46299,5.42044 1.01333,7.82709 0.55471,2.4001 1.20988,5.99261 1.4654,7.99743 0.81022,6.40974 6.781,20.8999 10.64213,25.85953 1.11378,1.4501 3.54009,5.78296 5.37457,9.63972 1.84539,3.85458 3.63182,7.01031 3.98342,7.01031 0.76218,0 1.32781,1.36493 2.66654,6.39882 1.48287,5.55146 1.29069,7.16536 -1.18367,10.24247 l -2.21229,2.75171 1.89781,5.74802 c 2.10528,6.39882 3.93975,13.38292 3.51389,13.38292 -0.15506,-0.004 -1.48287,-1.88252 -2.95481,-4.18435 z m 293.5507,-45.96011 c 1.43482,-0.92815 3.11423,-0.92815 2.5486,0 -0.24459,0.39529 -1.1662,0.72506 -2.04194,0.71414 -1.29505,-0.004 -1.39114,-0.13977 -0.50666,-0.71414 z m -42.17324,-4.78928 c 0,-1.27977 1.56804,-1.05483 2.01574,0.29482 0.15942,0.47391 -0.22713,0.86482 -0.86483,0.86482 -0.62896,-0.002 -1.15091,-0.53068 -1.15091,-1.15964 z M 319.5129,397.93458 c -0.26206,-0.42586 -0.30356,-0.94999 -0.0917,-1.16183 0.51758,-0.52195 1.93493,0.39529 1.93493,1.24701 0.007,0.93252 -1.25137,0.87355 -1.84321,-0.0852 z m 2.57482,-2.86309 c 0,-0.9347 0.51758,-0.9347 1.09195,0 0.24459,0.39529 0.10701,0.72943 -0.3254,0.72943 -0.41931,0 -0.76655,-0.32977 -0.76655,-0.72943 z m -3.81745,-4.69756 c -1.46103,-1.99826 -1.57896,-2.57044 -0.54816,-2.57044 0.39528,0 0.72505,0.37999 0.72505,0.84953 0,0.46954 0.54816,1.45448 1.20988,2.18608 0.66172,0.72942 0.90632,1.31252 0.54379,1.30597 -0.36253,-0.0175 -1.23172,-0.80586 -1.93056,-1.77114 z M 675.2872,368.46508 c -0.28828,-0.28828 -0.50667,-1.37149 -0.48701,-2.39574 l 0.048,-1.88033 0.69667,1.7493 c 0.76436,1.8978 0.60493,3.39159 -0.2577,2.52677 z m -322.96343,-3.81745 c -0.31448,-0.50667 -0.36689,-1.11379 -0.12885,-1.35402 0.6508,-0.6508 1.36057,0.31011 1.00678,1.35838 -0.24678,0.73598 -0.41931,0.73598 -0.87793,-0.004 z m 5.04044,-1.2623 c 1.04608,-1.03516 2.06378,-1.71654 2.27125,-1.51999 0.57,0.57 -2.10528,3.41562 -3.20378,3.41562 -0.55689,-0.004 -0.16597,-0.79276 0.93253,-1.89563 z m -7.64583,-1.74493 c 0,-0.39529 0.51103,-0.72505 1.13563,-0.72505 0.62459,0 0.93252,0.32976 0.68356,0.72505 -0.5831,0.94999 -1.81919,0.94999 -1.81919,0 z m 5.09067,-16.709 c 0,-0.92815 0.51758,-0.92815 1.09194,0 0.2446,0.39966 0.10046,0.72506 -0.31884,0.72506 -0.42586,0 -0.7731,-0.3254 -0.7731,-0.72506 z m -10.90857,-27.61756 c 0,-0.93252 0.51758,-0.93252 1.09195,0 0.2446,0.39529 0.10701,0.72942 -0.31885,0.72942 -0.43241,0 -0.7731,-0.32977 -0.7731,-0.72942 z m -4.02492,-5.85066 c -0.66172,-1.07666 -0.13322,-1.46539 1.02861,-0.73597 0.62897,0.37781 0.70322,0.75781 0.21403,1.05482 -0.41058,0.2577 -0.97184,0.11356 -1.24264,-0.31885 z m -72.20837,-6.5102 c 0,-0.99804 0.16597,-1.40861 0.36689,-0.90631 0.19655,0.50011 0.19655,1.31689 0,1.81918 -0.2031,0.50012 -0.36689,0.0961 -0.36689,-0.91287 z m 0.45206,-6.61502 c -0.53942,-1.40861 0.91069,-7.91226 1.77115,-7.91226 0.59183,0 0.21839,3.19941 -0.86483,7.23962 -0.35161,1.33218 -0.58528,1.50252 -0.90632,0.67264 z m 8.15904,-26.08447 c 0,-0.39528 0.3254,-0.72505 0.72506,-0.72505 0.39965,0 0.72505,0.32977 0.72505,0.72505 0,0.39966 -0.3254,0.72943 -0.72505,0.72943 -0.39966,0 -0.72506,-0.32977 -0.72506,-0.72943 z m 2.17517,-4.02492 c 0,-0.90631 2.31929,-4.79802 2.64906,-4.4617 0.39529,0.38873 -1.72309,4.86354 -2.30401,4.86354 -0.18563,-0.007 -0.34505,-0.18345 -0.34505,-0.40184 z m 150.54694,-4.82641 c -0.0109,-0.68356 0.32976,-1.45011 0.76218,-1.71217 1.27321,-0.79494 1.46102,0.0437 0.32976,1.53527 -0.93689,1.23391 -1.07011,1.24919 -1.09194,0.1769 z m -147.63144,-1.23172 c 0,-0.39965 0.32977,-0.92815 0.72942,-1.17275 0.39529,-0.25115 0.72505,-0.12885 0.72505,0.27299 0,0.40183 -0.32976,0.93252 -0.72505,1.1793 -0.39747,0.2446 -0.72942,0.1223 -0.72942,-0.27954 z m 141.37894,-7.35099 c 0,-0.79931 0.43241,-1.46103 0.95873,-1.46103 0.73597,0 0.78402,0.34724 0.18126,1.46103 -0.9762,1.817 -1.13999,1.817 -1.13999,0 z m -93.85079,-4.54251 c 0.0852,-0.50011 0.39528,-1.31689 0.70976,-1.81919 0.36253,-0.58091 0.15506,-0.91068 -0.56562,-0.91068 -0.6246,0 -1.13563,-0.47391 -1.13563,-1.06574 0,-0.68793 0.42149,-0.90195 1.19896,-0.59621 1.20988,0.46299 1.17275,-0.45862 -0.20747,-5.10813 -0.27736,-0.91724 0.0699,-1.43919 1.12471,-1.71218 0.83643,-0.21839 1.51999,-0.61804 1.51999,-0.89103 0,-0.26643 0.58747,-0.53287 1.32126,-0.58091 2.21228,-0.17035 7.42088,-2.69275 7.16536,-3.47677 -0.13322,-0.39965 -0.99149,-0.77747 -1.90436,-0.82114 -1.93493,-0.10046 -3.07711,-1.58333 -2.54424,-3.2955 0.20747,-0.66609 0.0371,-1.42827 -0.37781,-1.68379 -0.42149,-0.26207 -0.75781,0.13322 -0.75781,0.89103 0,0.74689 -0.48046,1.98953 -1.06574,2.767 -1.6685,2.20792 -1.3977,-0.29264 0.34068,-3.15136 2.00045,-3.2693 1.83448,-4.26079 -0.81677,-4.79366 -3.57286,-0.71413 -3.75849,-0.56563 -1.62046,1.26885 1.95678,1.68378 1.9677,1.76458 0.75126,3.63618 -0.68792,1.05046 -1.73838,1.90873 -2.32366,1.90873 -0.59184,0 -1.07666,0.29264 -1.07666,0.64425 0,0.35161 -0.66609,0.81678 -1.48287,1.02862 -0.80586,0.21402 -1.41735,0.66172 -1.34965,0.99804 0.31448,1.60953 -1.10287,5.33089 -2.02665,5.33089 -0.57655,0 -0.86919,0.28827 -0.65517,0.62896 0.21402,0.34724 1.29068,0.48483 2.4001,0.31885 1.84539,-0.29264 1.91309,-0.22494 0.75126,0.72069 -0.69885,0.56563 -1.27321,1.44574 -1.27321,1.94148 0,1.13563 -3.48113,0.37345 -5.14963,-1.12471 -0.6246,-0.56563 -1.70562,-1.02861 -2.38918,-1.02861 -1.03954,0 -1.10287,-0.25115 -0.41494,-1.54183 0.45425,-0.84736 1.4501,-1.70126 2.20792,-1.90436 0.75781,-0.19655 1.38022,-0.66609 1.38022,-1.04609 0,-0.36689 -0.27736,-0.51103 -0.61804,-0.29919 -0.34069,0.20747 -0.99149,-0.42586 -1.43919,-1.41298 -0.4477,-0.99149 -1.10287,-1.7908 -1.4654,-1.7908 -1.0985,0 -4.45296,2.94826 -4.27607,3.75849 0.0917,0.42586 -0.29919,0.94344 -0.85827,1.14654 -0.70977,0.26207 -0.88011,0.004 -0.57,-0.81022 0.25552,-0.65517 0.13759,-1.18804 -0.24459,-1.18804 -0.38218,0 -0.70322,-0.54379 -0.70322,-1.20988 0,-1.11379 -0.0961,-1.11379 -1.33217,0 -0.72943,0.66609 -1.67942,1.20988 -2.10091,1.20988 -0.42586,0 -2.37827,1.43919 -4.33504,3.19286 -2.92205,2.62286 -3.92883,3.12515 -5.60825,2.81067 -1.627,-0.31011 -2.41102,0.0371 -3.83274,1.71218 l -1.79079,2.1009 1.27976,-2.3455 c 0.70322,-1.27976 4.08389,-6.08871 7.50169,-10.67489 32.28018,-43.28702 79.35845,-73.08193 132.08427,-83.59084 20.55921,-4.10573 45.2569,-5.80698 57.49328,-3.97688 3.52917,0.52851 5.66939,1.07666 4.7456,1.23172 -0.92815,0.14851 -1.86504,0.73597 -2.08343,1.30597 -0.23368,0.60712 -1.3977,1.02862 -2.8216,1.02862 -2.65999,0 -4.00963,1.14654 -1.97206,1.67941 1.06574,0.28173 1.0308,0.34724 -0.20747,0.41494 -0.81678,0.0524 -1.87597,0.47391 -2.35206,0.95 -0.59183,0.58747 -5.46411,0.9216 -15.5952,1.05482 -17.55198,0.24023 -18.76842,0.37345 -23.87,2.62941 -2.17516,0.95873 -5.64537,1.94586 -7.71571,2.19045 -2.0747,0.2446 -4.36779,0.76873 -5.09721,1.16839 -0.72506,0.39528 -2.29309,0.92815 -3.47021,1.18367 -1.58988,0.33632 -1.87597,0.61804 -1.12034,1.08321 0.55471,0.34069 1.27321,0.47391 1.58987,0.27736 0.31012,-0.19219 1.71655,-0.0371 3.11861,0.34724 1.53091,0.42586 2.70803,0.43678 2.95918,0.0437 0.22931,-0.36689 0,-0.66608 -0.50011,-0.66608 -0.57655,0 -0.66172,-0.25115 -0.23368,-0.66609 1.24264,-1.19896 5.76986,-1.13563 7.52352,0.0917 1.58333,1.10942 1.60517,1.2208 0.33632,1.8716 -1.35401,0.69885 -6.36606,1.89781 -11.26017,2.67746 -1.98298,0.3254 -2.767,0.8539 -3.07711,2.10528 -0.39528,1.56803 -0.78839,1.68378 -5.71089,1.68378 -5.66721,0 -12.35867,1.5462 -11.95902,2.767 0.32977,0.99804 3.99872,1.37585 5.0863,0.52195 2.96354,-2.34551 10.37132,-2.81068 9.52179,-0.59184 -0.43678,1.14 1.627,2.18172 2.27125,1.14655 0.23368,-0.38437 1.05482,-0.69885 1.83884,-0.69885 0.80586,0 1.41298,-0.50011 1.41298,-1.16838 0,-0.7731 0.39529,-1.02425 1.14655,-0.72942 0.63551,0.24022 1.63792,0.44333 2.23413,0.44333 0.94344,0 0.94344,0.13758 -0.0328,1.10942 -1.77114,1.77114 -0.75126,2.99193 2.21884,2.6447 1.81918,-0.21403 2.4678,-0.0524 2.12274,0.51103 -0.34505,0.56344 0.54379,0.82114 2.83689,0.82114 2.29309,0 3.46584,0.34069 3.75848,1.08322 0.22931,0.5962 0.87356,1.09194 1.42827,1.09194 0.90632,0 1.32126,0.89103 0.83207,1.78643 -0.10046,0.18126 0.46298,0.79931 1.247,1.3693 1.22735,0.8954 1.30597,1.30598 0.57,2.92206 -0.47391,1.02425 -1.66413,2.0747 -2.63815,2.3193 l -1.77769,0.44551 1.56804,1.57241 c 0.86919,0.86482 2.28654,1.63137 3.15573,1.71217 0.86919,0.0743 2.59665,0.65517 3.83929,1.29505 1.77551,0.91724 2.20137,1.56149 2.00918,3.0116 -0.13321,1.01333 -0.71413,2.1424 -1.29068,2.50056 -0.78839,0.50666 -0.81678,0.66609 -0.0961,0.67264 0.52195,0.004 0.74689,0.34724 0.50011,0.74689 -0.24459,0.39529 0.0633,0.72506 0.68356,0.72506 0.62896,0 1.13563,0.49137 1.13563,1.08758 0,0.59183 -0.4477,1.08758 -1.00241,1.08758 -1.51999,0 -7.72663,2.88929 -7.72663,3.59906 0,0.34724 -0.73597,0.48483 -1.63792,0.3254 -0.90195,-0.16597 -1.22735,-0.11793 -0.72942,0.1223 0.66609,0.31885 0.69884,0.79931 0.1223,1.88689 -0.43242,0.7993 -0.97621,1.26884 -1.20552,1.03953 -0.2293,-0.22494 -0.78401,0.0917 -1.23171,0.70977 -0.45425,0.61367 -1.40862,1.20551 -2.13367,1.31252 -1.54183,0.22494 -2.65562,1.77114 -2.17079,3.02251 0.29264,0.76874 -1.20988,1.49379 -3.75412,1.81919 -0.39529,0.0524 -1.18368,0.47391 -1.72747,0.93252 -0.55907,0.45425 -1.46102,0.83644 -2.00045,0.84299 -1.1247,0.0109 -6.80939,5.29376 -6.80939,6.3333 0,0.36689 -0.69884,0.45862 -1.55056,0.19218 -0.98712,-0.31885 -1.37586,-0.21839 -1.06574,0.26644 0.37781,0.61804 -5.31561,2.11183 -6.82905,1.78643 -6.29181,-1.32781 -8.81421,-1.41735 -15.0951,-0.55908 -2.57044,0.35816 -4.14722,0.25115 -4.8417,-0.3254 -0.7993,-0.66172 -1.62045,-0.60713 -3.64055,0.23367 -1.43482,0.59621 -2.61194,1.38678 -2.61194,1.74275 0,0.35161 -1.0177,0.68356 -2.26689,0.72069 -1.24264,0.0371 -4.47917,1.23172 -7.19157,2.64907 -5.82664,3.06619 -6.9164,3.22998 -6.1848,0.95873 0.28828,-0.90195 0.59184,-2.67746 0.68793,-3.95067 0.20747,-2.95918 2.63378,-6.11055 9.33616,-12.09879 6.26997,-5.6148 15.07326,-10.1988 15.07326,-7.85329 0,0.34068 0.82551,0.46953 1.83884,0.27735 1.71217,-0.32977 1.74275,-0.42149 0.54379,-1.35402 -1.23172,-0.95436 -1.2208,-1.05482 0.16597,-2.1424 0.79931,-0.62896 2.34551,-1.01769 3.43964,-0.85827 1.46103,0.20747 2.11183,-0.0852 2.41976,-1.06137 0.25115,-0.79931 2.93297,-2.51149 6.54732,-4.20619 7.03215,-3.27366 9.85811,-5.66721 9.28157,-7.87076 -0.31449,-1.17276 0.23367,-1.79735 2.57481,-2.99631 1.63137,-0.83207 3.2147,-1.46103 3.52481,-1.39114 0.31448,0.0699 1.13126,-0.1223 1.81919,-0.42586 0.81022,-0.35161 2.19044,0.0328 3.8917,1.07666 2.12712,1.31252 2.76263,1.43919 3.24746,0.6508 1.33872,-2.16424 -4.42458,-3.64056 -16.57141,-4.23239 -2.15988,-0.11138 -2.06816,-1.64229 0.25114,-4.394 1.40207,-1.6685 1.59862,-2.22976 0.76873,-2.22976 -0.60712,0 -1.31688,0.34069 -1.58332,0.76218 -0.31448,0.50666 -1.10942,0.34724 -2.34551,-0.45425 -1.64665,-1.07666 -2.45688,-1.12471 -6.70674,-0.36253 -2.65562,0.47391 -5.80043,1.49815 -6.96882,2.27125 -1.1793,0.77747 -2.7255,1.40862 -3.45056,1.41735 -0.72505,0 -1.11378,0.32977 -0.86919,0.72942 0.75126,1.20988 3.28458,0.81023 5.67377,-0.88447 2.47872,-1.76459 10.94132,-2.78884 12.24729,-1.48287 1.32126,1.32126 -2.82159,6.22192 -7.09111,8.39272 -2.19045,1.11378 -4.17561,2.50493 -4.39837,3.08803 -0.22276,0.5831 -0.86482,1.06137 -1.4239,1.06137 -0.55471,0 -1.02425,0.4062 -1.03517,0.90632 -0.0218,0.99149 -5.8179,4.17998 -7.59778,4.17998 -0.60275,0 -2.00045,1.04608 -3.09676,2.32366 -4.63423,5.37894 -5.07101,5.66721 -8.26387,5.54492 l -3.05527,-0.11793 2.29309,-2.04195 c 1.25793,-1.13126 2.29309,-2.22976 2.29309,-2.45251 0,-0.76218 -3.14481,1.29068 -5.42698,3.55101 -1.26448,1.24701 -3.52918,2.6447 -5.03388,3.0924 -1.89344,0.56563 -2.4962,0.57655 -1.95677,0.0437 1.35401,-1.34965 0.84735,-2.22976 -0.54816,-0.96965 -2.22321,2.00918 -2.48528,1.35401 -0.71414,-1.80172 0.92161,-1.65321 3.04436,-4.12101 4.70848,-5.4925 1.6685,-1.3693 3.36976,-3.45492 3.78033,-4.63423 0.43678,-1.23171 1.55712,-2.44815 2.65562,-2.86309 2.45252,-0.93252 2.53332,-0.9216 2.53332,0.38874 0,1.51999 2.17079,2.24504 2.9701,0.99149 0.45862,-0.72069 0.64425,-0.75126 0.65517,-0.10046 0.004,0.49574 0.36689,0.90631 0.81678,0.90631 0.45861,0 0.63988,-0.64424 0.42149,-1.49378 -0.28172,-1.07666 0.0524,-1.66413 1.2208,-2.10528 0.88011,-0.33632 2.04194,-1.13562 2.58136,-1.77551 0.53287,-0.63551 1.74275,-1.16838 2.69275,-1.16838 0.95436,0 1.72309,-0.29264 1.72309,-0.6508 0,-0.37345 -1.1247,-0.37782 -2.7255,-0.0109 -1.49379,0.35816 -4.09481,0.45425 -5.75894,0.21402 -2.61194,-0.36253 -3.50734,-0.10046 -6.4141,1.90436 -1.86068,1.27321 -3.59906,2.10091 -3.86987,1.82792 -0.27735,-0.27299 0.0961,-0.9216 0.81678,-1.45666 0.89103,-0.6508 1.05045,-1.12471 0.50011,-1.46539 -1.29505,-0.79931 1.42827,-3.38068 3.02907,-2.86746 1.96114,0.62459 3.00722,-0.28827 1.76022,-1.53091 -0.57655,-0.57655 -1.35402,-1.04609 -1.73183,-1.04609 -0.38437,0 -1.0985,-0.49138 -1.59425,-1.08758 -1.13999,-1.37585 -4.88974,-1.39114 -7.27237,-0.0328 -1.00241,0.57 -2.93298,1.5462 -4.29136,2.17516 -1.36494,0.6246 -3.85458,2.36735 -5.54492,3.86113 -1.6947,1.48724 -4.44641,3.81309 -6.12583,5.16055 -1.67941,1.34747 -3.40251,3.21033 -3.82182,4.13194 -0.41931,0.9216 -1.77114,2.09435 -2.9963,2.60757 -1.22735,0.50666 -3.22562,1.79079 -4.44642,2.8478 -1.22735,1.06137 -3.16228,2.41539 -4.31319,3.01815 -1.67505,0.85827 -1.86068,1.16838 -0.91069,1.52436 0.6508,0.25551 1.18804,0.13758 1.18804,-0.25115 0,-0.37782 0.34069,-0.70322 0.76873,-0.70322 0.42805,0 1.97206,-0.81677 3.45056,-1.82355 1.48287,-1.00241 2.79976,-1.48724 2.93297,-1.08758 0.6508,1.94585 7.70916,-0.35161 10.48708,-3.42872 0.69884,-0.7731 2.00918,-1.3431 2.90676,-1.26448 0.90195,0.0808 2.29309,-0.20747 3.08803,-0.63988 1.69471,-0.91724 6.28526,-2.62286 7.1064,-2.63815 0.31012,-0.004 0.0633,0.75782 -0.54815,1.69034 -0.60713,0.92816 -0.93908,1.86505 -0.72069,2.08562 0.21402,0.21402 -0.76873,1.40206 -2.17516,2.6447 -1.41735,1.23609 -2.57482,2.58574 -2.57482,2.99194 0,0.39965 -1.22079,1.24701 -2.71458,1.87597 -2.87838,1.19896 -6.0079,3.75848 -6.0079,4.92032 0,0.38873 1.46103,0.5285 3.43309,0.30356 2.92642,-0.32977 3.24745,-0.25115 2.15987,0.54816 -1.25356,0.91723 -7.02123,6.09962 -12.18833,10.96316 -1.43482,1.3431 -3.03343,3.75412 -3.5663,5.34836 -0.52851,1.60517 -1.19896,2.76263 -1.48724,2.58574 -0.29919,-0.18127 -0.93252,0.61804 -1.41298,1.77987 -1.29068,3.12516 -5.43353,6.70238 -6.52111,5.61917 -0.65517,-0.64425 -0.7469,-0.56563 -0.40621,0.34069 0.33632,0.85827 -0.15506,1.39769 -1.77114,1.95677 -1.22735,0.42586 -2.22321,1.28413 -2.22321,1.90436 0,0.62459 -0.39528,1.12471 -0.87356,1.12471 -0.64425,0 -0.66172,0.21402 -0.0524,0.82114 1.03517,1.03517 0.38437,2.70367 -1.8716,4.79802 -0.98057,0.90632 -1.51999,1.65321 -1.20551,1.65321 0.31448,0 -0.31011,0.81678 -1.38678,1.81919 -2.15332,1.95677 -3.29986,2.29746 -3.08584,0.88011 z m -7.94502,-30.70559 c 0.34724,-1.45666 0.27299,-1.93494 -0.21402,-1.45666 -0.39529,0.39528 -0.95873,1.70562 -1.23609,2.90021 -0.34724,1.46103 -0.26643,1.94149 0.21403,1.46103 0.39965,-0.39965 0.95873,-1.70562 1.23608,-2.90458 z m -1.9393,-1.49816 c 0.0961,-1.07229 -0.14414,-1.66849 -0.57,-1.41298 -0.84298,0.52851 -0.98057,3.27366 -0.1485,3.27366 0.3123,-0.007 0.6377,-0.83861 0.7185,-1.86068 z m 7.7987,-6.85743 c 1.5462,-1.70563 0.27735,-1.98953 -1.40207,-0.31448 -1.28413,1.27976 -1.42826,1.76459 -0.5285,1.76459 0.34287,0 1.20551,-0.65517 1.93057,-1.45011 z m 4.36779,-6.54733 c 0.57,-0.9216 -0.38873,-0.9216 -1.81919,0 -0.94344,0.60276 -0.9216,0.70977 0.13759,0.72069 0.67919,0.004 1.43045,-0.31666 1.6816,-0.72069 z m 7.07583,-4.51629 c 1.25355,-1.16839 1.90872,-2.34114 1.59424,-2.84125 -0.35161,-0.56563 -0.21839,-0.66609 0.39966,-0.28173 0.62459,0.37782 0.82114,0.24023 0.5962,-0.43678 -0.43241,-1.29068 -1.47632,-1.08758 -2.4001,0.47391 -0.39529,0.67701 -1.62046,2.14895 -2.72551,3.26929 -1.0985,1.12471 -2.00045,2.43723 -2.00045,2.91551 0.002,0.94344 0.72287,0.45643 4.53596,-3.09895 z m 64.18255,-15.82889 c -0.25115,-0.39965 -0.77747,-0.72505 -1.18368,-0.72505 -0.39528,0 -0.52195,0.3254 -0.27735,0.72505 0.2446,0.39965 0.77747,0.72942 1.1793,0.72942 0.40184,0 0.52851,-0.32977 0.28173,-0.72942 z m 30.05479,-8.7072 c 1.04608,0.0109 1.06137,0.10701 0.11793,0.71414 -0.95,0.61367 -0.93908,0.70976 0.10046,0.71413 0.63988,0.0109 1.56148,-0.4477 2.03757,-1.01769 0.67264,-0.81678 0.56563,-1.11379 -0.54379,-1.47195 -1.91309,-0.60712 -3.78469,0.22931 -3.71699,1.6685 0.0371,0.76218 0.19218,0.85827 0.42149,0.28827 0.20966,-0.50666 0.91724,-0.90195 1.58333,-0.8954 z m -21.50702,-6.55387 c 0.61367,0 1.3016,-0.49138 1.53091,-1.08758 0.56563,-1.46103 -0.15506,-1.36931 -3.02906,0.37344 -1.41735,0.86483 -2.18609,1.79735 -1.88689,2.28654 0.35816,0.57 0.78402,0.45862 1.38677,-0.37344 0.4892,-0.65954 1.38459,-1.19896 1.99827,-1.19896 z m 8.17214,-6.53641 c 0.25115,-0.39965 0.12885,-0.72942 -0.27735,-0.72942 -0.39966,0 -0.92816,0.32977 -1.17931,0.72942 -0.25115,0.39529 -0.11793,0.72506 0.28172,0.72506 0.39966,0 0.93035,-0.32977 1.17494,-0.72506 z m 6.1848,-5.8179 c 0,-0.39965 -0.49138,-0.72942 -1.08758,-0.72942 -0.59621,0 -1.08758,0.32977 -1.08758,0.72942 0,0.39529 0.49137,0.72506 1.08758,0.72506 0.5962,0 1.08758,-0.32977 1.08758,-0.72506 z m -17.44497,85.36854 c 0,-0.61368 -0.49575,-1.30161 -1.09195,-1.53092 -1.41298,-0.54379 -1.41298,-1.71217 0,-1.71217 0.5962,0 1.09195,-0.49575 1.09195,-1.08758 0,-0.60276 -0.34724,-1.09195 -0.77747,-1.09195 -0.42149,0 -0.57,-0.31011 -0.33632,-0.6923 0.23368,-0.38218 0.96528,-0.49137 1.62045,-0.24022 0.93253,0.35816 1.07666,0.16597 0.68356,-0.88011 -0.56999,-1.47632 0.53942,-2.51585 2.70803,-2.53333 1.00241,-0.0109 1.25356,0.36253 0.97621,1.43919 -0.29265,1.12034 -0.0218,1.46103 1.18804,1.4654 0.85827,0 2.82159,0.34069 4.33503,0.76873 2.54424,0.70977 2.75171,0.95873 2.54861,3.07711 -0.29264,3.01159 -2.55298,4.12101 -8.408,4.13849 -3.59907,-0.007 -4.53814,-0.24023 -4.53814,-1.12034 z m 100.09892,-5.914 c -1.00241,-0.99804 -0.43023,-2.41975 0.96965,-2.41975 0.96965,0 1.45666,0.48482 1.45666,1.45665 0.002,1.39551 -1.4239,1.96114 -2.42631,0.9631 z M 468.3433,215.76263 c -0.45425,-0.8539 -0.82115,-2.05723 -0.82115,-2.68619 0,-0.61804 -0.32976,-1.13563 -0.72942,-1.13563 -0.8539,0 -0.95436,-2.87401 -0.13321,-4.16469 0.32976,-0.51758 1.54619,-0.76873 2.89584,-0.5962 1.27977,0.16597 2.33022,0.004 2.33022,-0.34069 0,-0.67701 4.88975,-0.42586 5.60388,0.28827 0.71413,0.70322 -1.41298,2.72551 -2.44815,2.32367 -1.33873,-0.51103 -1.23172,1.01333 0.18563,2.57045 1.35402,1.49815 0.83644,2.78228 -1.06574,2.63378 -0.90632,-0.0699 -1.23172,-0.52196 -1.00241,-1.40862 0.58747,-2.22976 -0.83206,-1.4239 -2.44815,1.38678 -1.48068,2.57481 -1.56585,2.61849 -2.36734,1.12907 z m -97.73157,-9.73581 c 0.49137,-0.49575 1.07229,-0.71414 1.29505,-0.49138 0.22275,0.22276 -0.17035,0.62896 -0.8954,0.90195 -1.02862,0.40184 -1.10724,0.31667 -0.39965,-0.41057 z m 150.70418,-1.01115 c -1.33655,-1.60516 -0.57655,-1.79079 0.92378,-0.22494 0.69667,0.73598 0.98494,1.33218 0.63333,1.33218 -0.35597,0 -1.057,-0.49574 -1.55711,-1.10724 z m -32.4811,-0.0808 c -0.60058,-0.2446 -0.50012,-0.72942 0.36252,-1.59861 0.86046,-0.86919 1.4785,-1.02425 2.05723,-0.50012 0.45862,0.41058 0.66172,1.03517 0.4477,1.38678 -0.21839,0.35161 0.0633,0.48482 0.61804,0.29264 0.63989,-0.21839 0.92816,-1.16838 0.78402,-2.63378 -0.22494,-2.21884 -0.17034,-2.26688 1.75367,-1.53528 1.43482,0.54816 2.13367,0.52851 2.50275,-0.0808 0.36689,-0.60276 0.65517,-0.61368 1.01333,-0.0328 0.27735,0.44333 0.13322,0.80586 -0.31667,0.80586 -0.44988,0 -0.61149,0.32977 -0.36252,0.72942 0.25114,0.39528 0.0218,0.72942 -0.50012,0.73597 -0.69229,0.0109 -0.65517,0.20311 0.1354,0.71414 0.88885,0.57655 0.79276,0.70976 -0.49137,0.72068 -0.86046,0.004 -1.73402,-0.39965 -1.93712,-0.90195 -0.23368,-0.56563 -0.38873,-0.46298 -0.42586,0.28828 -0.0786,1.74712 -3.14699,2.62286 -5.641,1.60953 z m -132.9906,-7.44272 c 0.21839,-0.35161 1.13563,-0.82551 2.04195,-1.05482 1.58987,-0.39529 1.59861,-0.3669 0.24023,0.63988 -1.56804,1.1662 -2.89585,1.4108 -2.28218,0.41494 z m 18.59589,-7.35755 c 1.42827,-0.9216 2.39355,-0.9216 1.81918,0 -0.24459,0.39529 -0.99804,0.72505 -1.67505,0.72069 -1.06574,-0.0131 -1.08103,-0.1092 -0.14413,-0.72069 z m 3.63619,-3.63182 c 0,-0.39529 0.49574,-0.72942 1.09194,-0.72942 0.59621,0 1.08758,0.33632 1.08758,0.72942 0,0.3931 -0.49137,0.72942 -1.08758,0.72942 -0.60057,0.002 -1.09194,-0.33414 -1.09194,-0.72942 z m 64.91633,-12.79545 c 0.2446,-0.24023 0.86919,-0.26644 1.3977,-0.059 0.56999,0.22931 0.4062,0.40621 -0.44333,0.43678 -0.76874,0.0371 -1.1946,-0.13758 -0.95437,-0.37781 z m -4.87445,-0.99149 c -0.7731,-0.27299 -1.0985,-0.66172 -0.72506,-0.86483 0.96528,-0.53287 7.26146,-0.7731 6.75043,-0.26206 -0.89103,0.89103 -4.68228,1.60079 -6.02537,1.12689 z m 4.85698,-3.40688 c -1.55056,-0.6246 -1.00241,-1.81264 0.72942,-1.56804 0.8954,0.12885 1.55057,0.56563 1.45011,0.95873 -0.2162,0.88448 -0.9631,1.08758 -2.17953,0.60931 z m -10.35822,-0.48701 c 0,-0.22931 0.74034,-1.2208 1.65321,-2.19045 1.19459,-1.27976 2.69711,-1.89781 5.36802,-2.18171 2.04849,-0.21839 4.57526,-0.61368 5.61916,-0.87356 1.41299,-0.35816 1.89781,-0.19655 1.89781,0.59183 0,1.45011 -1.90872,2.97447 -2.92642,2.34551 -0.44333,-0.27735 -2.34114,-0.26644 -4.20619,0.0262 -2.70803,0.42149 -3.10768,0.64425 -1.94585,1.11378 1.31689,0.53288 1.28413,0.58747 -0.36253,0.64425 -1.0024,0.0328 -2.55297,0.25552 -3.45492,0.49575 -0.9085,0.24241 -1.64229,0.25333 -1.64229,0.0284 z m 69.61172,-13.32396 c 0.49137,-0.19655 1.47849,-0.20747 2.18171,-0.0262 0.70758,0.18563 0.30356,0.34724 -0.8954,0.36252 -1.20114,0.0153 -1.78206,-0.13321 -1.28631,-0.33632 z"
       id="path3794" />
  </g>
</svg>
